<?xml version="1.0" encoding="utf-8"?>
<!-- Generator: Adobe Illustrator 17.0.0, SVG Export Plug-In . SVG Version: 6.00 Build 0)  -->
<!DOCTYPE svg PUBLIC "-//W3C//DTD SVG 1.1//EN" "http://www.w3.org/Graphics/SVG/1.1/DTD/svg11.dtd">
<svg version="1.1" id="Camada_1" xmlns="http://www.w3.org/2000/svg" xmlns:xlink="http://www.w3.org/1999/xlink" x="0px" y="0px"
	 width="150px" height="90px" viewBox="0 0 150 90" enable-background="new 0 0 150 90" xml:space="preserve">
<g>
	<path fill="#3768B1" d="M29.602,53.564c0,14.488,6.145,21.731,18.435,21.731c10.655,0,22.4-5.067,35.235-15.203
		c12.835-10.136,24.406-23.487,34.715-40.053l6.319,3.486c-9.714,18.127-22.338,33.133-37.874,45.018
		C70.896,80.429,56.165,86.371,42.239,86.371c-8.92,0-15.97-2.874-21.149-8.623c-5.179-5.748-7.768-13.603-7.768-23.564
		c0-14.371,4.695-26.661,14.087-36.871C36.8,7.105,48.112,2,61.344,2c6.393,0,11.51,1.61,15.35,4.83
		c3.84,3.219,5.761,7.529,5.761,12.928c0,8.867-5.34,16.718-16.019,23.553C55.756,50.146,43.478,53.564,29.602,53.564z
		 M30.197,46.428c10.357-0.544,19.24-3.51,26.649-8.897c7.408-5.386,11.113-11.615,11.113-18.682c0-6.326-2.825-9.49-8.474-9.49
		c-6.74,0-12.96,3.609-18.658,10.824C35.128,27.4,31.584,36.148,30.197,46.428z"/>
</g>
<g>
	<g>
		<g>
			<g>
				<g>
					<g>
						
							<linearGradient id="SVGID_1_" gradientUnits="userSpaceOnUse" x1="49.8744" y1="281.1509" x2="72.0506" y2="283.6615" gradientTransform="matrix(1 0 0 1 34.9646 -227.4367)">
							<stop  offset="0" style="stop-color:#6FBF98"/>
							<stop  offset="1" style="stop-color:#16A745"/>
						</linearGradient>
						<polygon fill="url(#SVGID_1_)" points="79.354,42.174 107.309,86.406 141.629,29.995 106.996,73.441 						"/>
					</g>
					
						<linearGradient id="SVGID_2_" gradientUnits="userSpaceOnUse" x1="3.5725" y1="-64.0518" x2="-22.5789" y2="-84.7637" gradientTransform="matrix(0 1 -1 0 34.4214 80.0224)">
						<stop  offset="0" style="stop-color:#6FBF98"/>
						<stop  offset="1" style="stop-color:#16A745"/>
					</linearGradient>
					<path fill="url(#SVGID_2_)" d="M97.49,70.869L97.49,70.869c4.183,4.438,8.692,1.65,8.692,1.65l0.814,0.921l34.632-43.446
						l-34.32,56.412L97.49,70.869z"/>
				</g>
			</g>
			
				<linearGradient id="SVGID_3_" gradientUnits="userSpaceOnUse" x1="118.7819" y1="9.652" x2="124.0863" y2="46.2244" gradientTransform="matrix(1 0 0 -1 -0.015 90.7)">
				<stop  offset="0" style="stop-color:#6FBF98"/>
				<stop  offset="1" style="stop-color:#16A745"/>
			</linearGradient>
			<polygon fill="url(#SVGID_3_)" points="123.475,64.873 115.238,77.902 124.108,71.696 			"/>
			
				<linearGradient id="SVGID_4_" gradientUnits="userSpaceOnUse" x1="95.828" y1="18.9406" x2="87.2183" y2="23.6583" gradientTransform="matrix(1 0 0 -1 -0.015 90.7)">
				<stop  offset="0" style="stop-color:#6FBF98"/>
				<stop  offset="1" style="stop-color:#16A745"/>
			</linearGradient>
			<polygon fill="url(#SVGID_4_)" points="91.015,64.873 99.253,77.902 90.591,71.388 			"/>
		</g>
	</g>
</g>
</svg>
