<?xml version="1.0" encoding="utf-8"?>
<!-- Generator: Adobe Illustrator 17.0.0, SVG Export Plug-In . SVG Version: 6.00 Build 0)  -->
<!DOCTYPE svg PUBLIC "-//W3C//DTD SVG 1.1//EN" "http://www.w3.org/Graphics/SVG/1.1/DTD/svg11.dtd">
<svg version="1.1" id="Camada_1" xmlns="http://www.w3.org/2000/svg" xmlns:xlink="http://www.w3.org/1999/xlink" x="0px" y="0px"
	 width="300px" height="90px" viewBox="0 0 300 90" enable-background="new 0 0 300 90" xml:space="preserve">
<g>
	<path fill="#3768B1" d="M22.097,53.442c0,14.488,6.145,21.731,18.435,21.731c10.655,0,22.4-5.067,35.235-15.203
		c12.835-10.136,24.406-23.487,34.715-40.053l6.319,3.486c-9.714,18.127-22.338,33.133-37.874,45.018
		C63.391,80.307,48.66,86.249,34.734,86.249c-8.92,0-15.97-2.874-21.149-8.623c-5.179-5.748-7.768-13.603-7.768-23.564
		c0-14.371,4.695-26.661,14.087-36.871C29.295,6.983,40.607,1.878,53.839,1.878c6.393,0,11.51,1.61,15.35,4.83
		c3.84,3.219,5.761,7.529,5.761,12.928c0,8.867-5.34,16.718-16.019,23.553C48.251,50.024,35.973,53.442,22.097,53.442z
		 M22.692,46.306c10.357-0.544,19.24-3.51,26.649-8.897c7.408-5.386,11.113-11.615,11.113-18.682c0-6.326-2.825-9.49-8.474-9.49
		c-6.74,0-12.96,3.609-18.658,10.824C27.623,27.278,24.079,36.026,22.692,46.306z"/>
</g>
<g>
	<g>
		<g>
			<g>
				<g>
					<g>
						
							<linearGradient id="SVGID_1_" gradientUnits="userSpaceOnUse" x1="42.3695" y1="281.0289" x2="64.5457" y2="283.5395" gradientTransform="matrix(1 0 0 1 34.9646 -227.4367)">
							<stop  offset="0" style="stop-color:#6FBF98"/>
							<stop  offset="1" style="stop-color:#16A745"/>
						</linearGradient>
						<polygon fill="url(#SVGID_1_)" points="71.85,42.052 99.804,86.284 134.124,29.873 99.492,73.319 						"/>
					</g>
					
						<linearGradient id="SVGID_2_" gradientUnits="userSpaceOnUse" x1="78.4505" y1="18.4531" x2="52.2991" y2="-2.2588" gradientTransform="matrix(0 1 -1 0 109.4214 5.0224)">
						<stop  offset="0" style="stop-color:#6FBF98"/>
						<stop  offset="1" style="stop-color:#16A745"/>
					</linearGradient>
					<path fill="url(#SVGID_2_)" d="M89.985,70.747L89.985,70.747c4.183,4.438,8.692,1.65,8.692,1.65l0.814,0.921l34.632-43.446
						l-34.32,56.412L89.985,70.747z"/>
				</g>
			</g>
			
				<linearGradient id="SVGID_3_" gradientUnits="userSpaceOnUse" x1="111.277" y1="9.774" x2="116.5814" y2="46.3465" gradientTransform="matrix(1 0 0 -1 -0.015 90.7)">
				<stop  offset="0" style="stop-color:#6FBF98"/>
				<stop  offset="1" style="stop-color:#16A745"/>
			</linearGradient>
			<polygon fill="url(#SVGID_3_)" points="115.97,64.751 107.733,77.78 116.604,71.574 			"/>
			
				<linearGradient id="SVGID_4_" gradientUnits="userSpaceOnUse" x1="88.3231" y1="19.0627" x2="79.7134" y2="23.7803" gradientTransform="matrix(1 0 0 -1 -0.015 90.7)">
				<stop  offset="0" style="stop-color:#6FBF98"/>
				<stop  offset="1" style="stop-color:#16A745"/>
			</linearGradient>
			<polygon fill="url(#SVGID_4_)" points="83.51,64.751 91.748,77.78 83.086,71.266 			"/>
		</g>
	</g>
</g>
<g>
	<path fill="#FFFFFF" d="M147.175,86.452c-6.519,0-11.524-1.747-15.019-5.244c-3.497-3.495-5.244-9.184-5.244-17.064
		s1.747-13.569,5.244-17.066c3.495-3.495,8.501-5.244,15.019-5.244c6.517,0,11.54,1.749,15.066,5.244
		c3.524,3.497,5.287,9.186,5.287,17.066s-1.763,13.569-5.287,17.064C158.715,84.705,153.692,86.452,147.175,86.452z M139.086,76.409
		c0.948,1.184,2.103,2.014,3.466,2.488c1.363,0.476,2.933,0.711,4.71,0.711s3.334-0.235,4.667-0.711
		c1.333-0.474,2.474-1.304,3.421-2.488c0.948-1.186,1.658-2.77,2.134-4.756c0.474-1.985,0.711-4.488,0.711-7.51
		c0-3.023-0.237-5.524-0.711-7.511c-0.476-1.984-1.186-3.568-2.134-4.754c-0.948-1.184-2.089-2.014-3.421-2.49
		c-1.333-0.474-2.89-0.711-4.667-0.711s-3.347,0.237-4.71,0.711c-1.363,0.476-2.519,1.306-3.466,2.49
		c-0.948,1.186-1.658,2.77-2.132,4.754c-0.476,1.987-0.711,4.488-0.711,7.511c0,3.022,0.235,5.524,0.711,7.51
		C137.428,73.638,138.139,75.222,139.086,76.409z"/>
	<path fill="#FFFFFF" d="M179.614,85.562V20.68h8.976v64.882H179.614z"/>
	<path fill="#FFFFFF" d="M213.475,85.562l-16.531-42.839h9.332l12.976,35.196c2.192-4.503,4.43-9.643,6.71-15.421
		s4.014-12.368,5.201-19.775h8.177c-1.127,8-3.081,15.48-5.866,22.442c-2.787,6.964-6.105,13.763-9.954,20.397H213.475z"/>
	<path fill="#FFFFFF" d="M253.916,66.72c0.058,2.134,0.324,4.014,0.799,5.644c0.474,1.631,1.244,2.978,2.311,4.045
		c1.067,1.065,2.488,1.866,4.266,2.4c1.777,0.533,4.029,0.799,6.756,0.799c0.948,0,1.984-0.045,3.11-0.134
		c1.125-0.089,2.237-0.222,3.333-0.4c1.096-0.177,2.134-0.354,3.112-0.533c0.976-0.177,1.79-0.354,2.443-0.533l0.801,6.578
		c-1.72,0.474-3.808,0.904-6.266,1.287c-2.461,0.385-4.964,0.579-7.511,0.579c-3.378,0-6.459-0.327-9.244-0.978
		s-5.154-1.823-7.11-3.51c-1.955-1.689-3.481-3.969-4.577-6.844c-1.098-2.873-1.644-6.533-1.644-10.976
		c0-4.148,0.457-7.643,1.376-10.488c0.919-2.844,2.237-5.141,3.956-6.889c1.718-1.747,3.806-3.005,6.266-3.777
		c2.457-0.769,5.199-1.155,8.22-1.155c3.023,0,5.629,0.432,7.822,1.289c2.192,0.861,4.012,2.06,5.466,3.6
		c1.45,1.541,2.517,3.407,3.199,5.598c0.682,2.193,1.022,4.653,1.022,7.378v7.021H253.916z M273.203,60.498
		c0-8.235-3.052-12.354-9.155-12.354c-3.378,0-5.837,1.038-7.378,3.112c-1.541,2.074-2.43,5.154-2.665,9.242H273.203z"/>
</g>
</svg>
