<?xml version="1.0" encoding="utf-8"?>
<!-- Generator: Adobe Illustrator 17.0.0, SVG Export Plug-In . SVG Version: 6.00 Build 0)  -->
<!DOCTYPE svg PUBLIC "-//W3C//DTD SVG 1.1//EN" "http://www.w3.org/Graphics/SVG/1.1/DTD/svg11.dtd">
<svg version="1.1" id="Camada_1" xmlns="http://www.w3.org/2000/svg" xmlns:xlink="http://www.w3.org/1999/xlink" x="0px" y="0px"
	 width="80px" height="80px" viewBox="0 0 80 80" enable-background="new 0 0 80 80" xml:space="preserve">
<g>
	<g>
		<g>
			<g>
				<g>
					<g>
						
							<linearGradient id="SVGID_1_" gradientUnits="userSpaceOnUse" x1="-6.8308" y1="100.3417" x2="-5.519" y2="107.6798" gradientTransform="matrix(1 0 0 -1 34.9796 127.4922)">
							<stop  offset="0" style="stop-color:#CA1548"/>
							<stop  offset="1" style="stop-color:#E6007E"/>
						</linearGradient>
						<path fill="url(#SVGID_1_)" d="M28.466,26.818L28.466,26.818c-0.68,0.417-1.334,0.87-1.964,1.354l-4.346-4.916
							c4.081-3.236,9.044-5.405,14.465-6.08C35.03,18.007,29.72,21.16,28.466,26.818z"/>
						
							<linearGradient id="SVGID_2_" gradientUnits="userSpaceOnUse" x1="-13.8316" y1="64.9865" x2="-9.8819" y2="87.0804" gradientTransform="matrix(1 0 0 -1 34.9796 127.4922)">
							<stop  offset="0" style="stop-color:#CA1548"/>
							<stop  offset="1" style="stop-color:#E6007E"/>
						</linearGradient>
						<path fill="url(#SVGID_2_)" d="M21.671,33.235c-2.543,3.656-4.036,8.094-4.036,12.875c0,10.182,6.766,18.811,16.037,21.633
							c-5.289,0.24-12.071-0.395-16.812-4.233c-3.626-4.86-5.775-10.884-5.775-17.4c0-7.143,2.583-13.693,6.862-18.768
							L21.671,33.235z"/>
					</g>
					
						<linearGradient id="SVGID_3_" gradientUnits="userSpaceOnUse" x1="36.1998" y1="77.1726" x2="-4.1028" y2="57.6066" gradientTransform="matrix(1 0 0 -1 34.9796 127.4922)">
						<stop  offset="0" style="stop-color:#CA1548"/>
						<stop  offset="1" style="stop-color:#E6007E"/>
					</linearGradient>
					<path fill="url(#SVGID_3_)" d="M61.145,66.418c-5.302,5.455-12.712,8.85-20.902,8.85c-9.562,0-18.063-4.626-23.384-11.758
						c4.741,3.838,11.524,4.473,16.812,4.233c2.08,0.633,4.287,0.975,6.571,0.975c12.467,0,22.609-10.142,22.609-22.609
						c0-0.519-0.019-1.034-0.054-1.544c0.001,0,0.001,0.001,0.002,0.001C68.015,49.998,66.175,59.428,61.145,66.418z"/>
					<g>
						
							<linearGradient id="SVGID_4_" gradientUnits="userSpaceOnUse" x1="34.3277" y1="75.0726" x2="20.6038" y2="85.2738" gradientTransform="matrix(1 0 0 -1 34.9796 127.4922)">
							<stop  offset="0" style="stop-color:#CA1548"/>
							<stop  offset="1" style="stop-color:#E6007E"/>
						</linearGradient>
						<path fill="url(#SVGID_4_)" d="M63.077,44.875c-0.089-0.105-0.181-0.208-0.277-0.308c-0.001,0-0.001-0.001-0.002-0.001
							c-0.283-4.17-1.702-8.034-3.949-11.283l3.646-5.993c4.305,5.083,6.907,11.653,6.907,18.82c0,7.889-3.15,15.054-8.257,20.309
							C66.082,59.557,67.941,50.349,63.077,44.875z"/>
						
							<linearGradient id="SVGID_5_" gradientUnits="userSpaceOnUse" x1="14.4548" y1="97.9745" x2="1.3994" y2="107.6788" gradientTransform="matrix(1 0 0 -1 34.9796 127.4922)">
							<stop  offset="0" style="stop-color:#CA1548"/>
							<stop  offset="1" style="stop-color:#E6007E"/>
						</linearGradient>
						<path fill="url(#SVGID_5_)" d="M53.085,27.514c-3.65-2.528-8.075-4.012-12.842-4.012c-4.312,0-8.345,1.214-11.777,3.317v0
							c1.254-5.658,6.564-8.811,8.155-9.642c1.187-0.148,2.396-0.225,3.622-0.225c6.309,0,12.154,2.014,16.931,5.433L53.085,27.514z
							"/>
					</g>
					<g>
						
							<linearGradient id="SVGID_6_" gradientUnits="userSpaceOnUse" x1="-17.829" y1="342.0633" x2="5.314" y2="339.4433" gradientTransform="matrix(1 0 0 -1 34.9796 367.8633)">
							<stop  offset="0" style="stop-color:#CA1548"/>
							<stop  offset="1" style="stop-color:#E6007E"/>
						</linearGradient>
						<polygon fill="url(#SVGID_6_)" points="11.427,13.757 40.6,59.917 76.416,1.047 40.274,46.387 						"/>
					</g>
					
						<linearGradient id="SVGID_7_" gradientUnits="userSpaceOnUse" x1="69.6609" y1="-5.0571" x2="42.3695" y2="16.5577" gradientTransform="matrix(0 1 1 0 36.4364 -12.6776)">
						<stop  offset="0" style="stop-color:#CA1548"/>
						<stop  offset="1" style="stop-color:#E6007E"/>
					</linearGradient>
					<path fill="url(#SVGID_7_)" d="M30.353,43.703L30.353,43.703c4.365,4.631,9.071,1.722,9.071,1.722l0.85,0.961l36.142-45.34
						L40.6,59.917L30.353,43.703z"/>
				</g>
			</g>
			<linearGradient id="SVGID_8_" gradientUnits="userSpaceOnUse" x1="52.5573" y1="54.3253" x2="58.0929" y2="16.1585">
				<stop  offset="0.0914" style="stop-color:#F49624"/>
				<stop  offset="0.457" style="stop-color:#E63D11"/>
				<stop  offset="1" style="stop-color:#D43216"/>
			</linearGradient>
			<polygon fill="url(#SVGID_8_)" points="57.471,37.445 48.875,51.042 58.132,44.566 			"/>
			<linearGradient id="SVGID_9_" gradientUnits="userSpaceOnUse" x1="28.6031" y1="44.6318" x2="19.618" y2="39.7085">
				<stop  offset="0.0914" style="stop-color:#F49624"/>
				<stop  offset="0.457" style="stop-color:#E63D11"/>
				<stop  offset="1" style="stop-color:#D43216"/>
			</linearGradient>
			<polygon fill="url(#SVGID_9_)" points="23.596,37.445 32.193,51.042 23.153,44.244 			"/>
		</g>
		<g>
			<g>
				<polyline fill="none" stroke="#FFFFFF" stroke-width="0.5" stroke-miterlimit="10" points="40.6,59.917 50.328,58.034 
					54.07,44.942 65.923,39.096 49.71,23.269 65.923,15.497 76.416,1.047 				"/>
				<polyline fill="none" stroke="#FFFFFF" stroke-width="0.5" stroke-miterlimit="10" points="18.733,22.674 18.733,33.269 
					28.57,37.445 26.053,44.566 33.671,42.447 40.274,46.387 				"/>
			</g>
			<circle fill="#FFFFFF" cx="65.915" cy="39.143" r="1.043"/>
			<circle fill="#FFFFFF" cx="40.6" cy="59.563" r="1.043"/>
			<circle fill="#FFFFFF" cx="49.918" cy="23.276" r="1.043"/>
			<circle fill="#FFFFFF" cx="65.924" cy="15.497" r="1.043"/>
			<circle fill="#FFFFFF" cx="28.466" cy="37.445" r="1.043"/>
			<circle fill="#FFFFFF" cx="26.379" cy="44.244" r="1.043"/>
			<circle fill="#FFFFFF" cx="33.671" cy="42.615" r="1.043"/>
			<circle fill="#FFFFFF" cx="40.274" cy="46.387" r="1.043"/>
			<circle fill="#FFFFFF" cx="18.733" cy="33.487" r="1.043"/>
			<circle fill="#FFFFFF" cx="18.733" cy="23.276" r="1.043"/>
		</g>
	</g>
</g>
</svg>
